<svg width="70" height="70" viewBox="0 0 70 70" fill="none" xmlns="http://www.w3.org/2000/svg">
<g clip-path="url(#clip0)">
<path d="M35 68.4961C53.4994 68.4961 68.4961 53.4994 68.4961 35C68.4961 16.5006 53.4994 1.50391 35 1.50391C16.5006 1.50391 1.50391 16.5006 1.50391 35C1.50391 53.4994 16.5006 68.4961 35 68.4961Z" fill="#FFAF10"/>
<path d="M38.6406 51.9297H23.875V58.242H38.6406V51.9297Z" fill="#445EA0"/>
<path d="M26.5878 51.9297H23.875V58.242H26.5878V51.9297Z" fill="#2E4C89"/>
<path d="M45.5453 61.5234C45.5453 61.8994 45.2377 62.207 44.8618 62.207H17.6543C17.2783 62.207 16.9707 61.8994 16.9707 61.5234V58.7891C16.9707 58.4131 17.2783 58.1055 17.6543 58.1055H44.8618C45.2377 58.1055 45.5453 58.4131 45.5453 58.7891V61.5234Z" fill="#293D7C"/>
<path d="M19.6835 61.5234V58.7891C19.6835 58.4131 19.9911 58.1055 20.3671 58.1055H17.6543C17.2783 58.1055 16.9707 58.4131 16.9707 58.7891V61.5234C16.9707 61.8994 17.2783 62.207 17.6543 62.207H20.3671C19.9911 62.207 19.6835 61.8994 19.6835 61.5234Z" fill="#1A2B63"/>
<path d="M0 50.7003C0 51.4523 0.615234 52.0675 1.36719 52.0675H42.4067V42.9141H0V50.7003Z" fill="#293D7C"/>
<path d="M2.71277 50.7003V42.9141H0V50.7003C0 51.4523 0.615234 52.0675 1.36719 52.0675H4.07996C3.32801 52.0675 2.71277 51.4523 2.71277 50.7003Z" fill="#1A2B63"/>
<path d="M42.4067 39.2373C42.4067 38.9357 42.652 38.6904 42.9536 38.6904H62.5167V9.08777C62.5167 8.26117 61.8405 7.58496 61.014 7.58496H1.50281C0.676211 7.58496 0 8.26117 0 9.08777V43.0512H42.4067V39.2373Z" fill="#445EA0"/>
<path d="M42.407 39.2365C42.407 38.9349 42.6522 38.6896 42.9538 38.6896H59.5114V11.2734C59.5114 10.8975 59.2038 10.5898 58.8279 10.5898H3.68945C3.31348 10.5898 3.00586 10.8975 3.00586 11.2734V39.3611C3.00586 39.7371 3.31348 40.0447 3.68945 40.0447H42.4068L42.407 39.2365Z" fill="#EEF6FF"/>
<path d="M31.2574 49.5089C32.3077 49.5089 33.1593 48.6574 33.1593 47.607C33.1593 46.5566 32.3077 45.7051 31.2574 45.7051C30.207 45.7051 29.3555 46.5566 29.3555 47.607C29.3555 48.6574 30.207 49.5089 31.2574 49.5089Z" fill="#445EA0"/>
<path d="M56.9238 28.2153C56.9238 28.5913 56.6162 28.8989 56.2402 28.8989H34.5762C34.2002 28.8989 33.8926 28.5913 33.8926 28.2153V18.2734C33.8926 17.8975 34.2002 17.5898 34.5762 17.5898H56.2402C56.6162 17.5898 56.9238 17.8975 56.9238 18.2734V28.2153Z" fill="#FFAF10"/>
<path d="M36.6073 28.2153V18.2734C36.6073 17.8975 36.9149 17.5898 37.2909 17.5898H34.5781C34.2021 17.5898 33.8945 17.8975 33.8945 18.2734V28.2153C33.8945 28.5913 34.2021 28.8989 34.5781 28.8989H37.2909C36.9149 28.8989 36.6073 28.5913 36.6073 28.2153Z" fill="#FF9518"/>
<path d="M40.9157 32.8291H35.0215C34.4552 32.8291 33.9961 32.3701 33.9961 31.8037C33.9961 31.2373 34.4552 30.7783 35.0215 30.7783H40.9157C41.482 30.7783 41.9411 31.2373 41.9411 31.8037C41.9411 32.3701 41.482 32.8291 40.9157 32.8291Z" fill="#C3DDF4"/>
<path d="M40.9157 35.9453H35.0215C34.4552 35.9453 33.9961 35.4863 33.9961 34.9199C33.9961 34.3535 34.4552 33.8945 35.0215 33.8945H40.9157C41.482 33.8945 41.9411 34.3535 41.9411 34.9199C41.9411 35.4863 41.482 35.9453 40.9157 35.9453Z" fill="#C3DDF4"/>
<path d="M48.0258 32.8291H43.6426C43.0763 32.8291 42.6172 32.3701 42.6172 31.8037C42.6172 31.2373 43.0763 30.7783 43.6426 30.7783H48.0258C48.5921 30.7783 49.0512 31.2373 49.0512 31.8037C49.0512 32.3701 48.5921 32.8291 48.0258 32.8291Z" fill="#C3DDF4"/>
<path d="M48.0258 35.9453H43.6426C43.0763 35.9453 42.6172 35.4863 42.6172 34.9199C42.6172 34.3535 43.0763 33.8945 43.6426 33.8945H48.0258C48.5921 33.8945 49.0512 34.3535 49.0512 34.9199C49.0512 35.4863 48.5921 35.9453 48.0258 35.9453Z" fill="#C3DDF4"/>
<path d="M56.2979 32.8291H50.7148C50.1486 32.8291 49.6895 32.3701 49.6895 31.8037C49.6895 31.2373 50.1486 30.7783 50.7148 30.7783H56.2979C56.8642 30.7783 57.3233 31.2373 57.3233 31.8037C57.3233 32.3701 56.8642 32.8291 56.2979 32.8291Z" fill="#C3DDF4"/>
<path d="M56.2979 35.9453H50.7148C50.1486 35.9453 49.6895 35.4863 49.6895 34.9199C49.6895 34.3535 50.1486 33.8945 50.7148 33.8945H56.2979C56.8642 33.8945 57.3233 34.3535 57.3233 34.9199C57.3233 35.4863 56.8642 35.9453 56.2979 35.9453Z" fill="#C3DDF4"/>
<path d="M49.1327 15.1874C49.1327 15.5633 48.8251 15.871 48.4491 15.871H46.9453C46.5693 15.871 46.2617 15.5633 46.2617 15.1874V13.6836C46.2617 13.3076 46.5693 13 46.9453 13H48.4491C48.8251 13 49.1327 13.3076 49.1327 13.6836V15.1874Z" fill="#EF8318"/>
<path d="M52.9608 15.1874C52.9608 15.5633 52.6532 15.871 52.2772 15.871H50.7734C50.3975 15.871 50.0898 15.5633 50.0898 15.1874V13.6836C50.0898 13.3076 50.3975 13 50.7734 13H52.2772C52.6532 13 52.9608 13.3076 52.9608 13.6836V15.1874Z" fill="#EF8318"/>
<path d="M56.7889 15.1874C56.7889 15.5633 56.4813 15.871 56.1053 15.871H54.6016C54.2256 15.871 53.918 15.5633 53.918 15.1874V13.6836C53.918 13.3076 54.2256 13 54.6016 13H56.1053C56.4813 13 56.7889 13.3076 56.7889 13.6836V15.1874Z" fill="#EF8318"/>
<path d="M26.0996 35.1377H24.8691C24.3029 35.1377 23.8438 34.6787 23.8438 34.1123C23.8438 33.5459 24.3029 33.0869 24.8691 33.0869H26.0996C26.6659 33.0869 27.125 33.5459 27.125 34.1123C27.125 34.6787 26.6659 35.1377 26.0996 35.1377Z" fill="#69CDFF"/>
<path d="M21.4512 35.1377H20.2207C19.6544 35.1377 19.1953 34.6787 19.1953 34.1123C19.1953 33.5459 19.6544 33.0869 20.2207 33.0869H21.4512C22.0175 33.0869 22.4766 33.5459 22.4766 34.1123C22.4766 34.6787 22.0175 35.1377 21.4512 35.1377Z" fill="#69CDFF"/>
<path d="M16.8027 35.1377H15.5723C15.006 35.1377 14.5469 34.6787 14.5469 34.1123C14.5469 33.5459 15.006 33.0869 15.5723 33.0869H16.8027C17.369 33.0869 17.8281 33.5459 17.8281 34.1123C17.8283 34.6787 17.3692 35.1377 16.8027 35.1377Z" fill="#69CDFF"/>
<path d="M12.1543 35.1377H10.9238C10.3575 35.1377 9.89844 34.6787 9.89844 34.1123C9.89844 33.5459 10.3575 33.0869 10.9238 33.0869H12.1543C12.7206 33.0869 13.1797 33.5459 13.1797 34.1123C13.1797 34.6787 12.7207 35.1377 12.1543 35.1377Z" fill="#69CDFF"/>
<path d="M30.0996 30.9131C29.5333 30.9131 29.0742 30.4541 29.0742 29.8877V28.6572C29.0742 28.0909 29.5333 27.6318 30.0996 27.6318C30.6659 27.6318 31.125 28.0909 31.125 28.6572V29.8877C31.125 30.4541 30.6659 30.9131 30.0996 30.9131Z" fill="#69CDFF"/>
<path d="M30.0996 26.2646C29.5333 26.2646 29.0742 25.8057 29.0742 25.2393V24.0088C29.0742 23.4425 29.5333 22.9834 30.0996 22.9834C30.6659 22.9834 31.125 23.4425 31.125 24.0088V25.2393C31.125 25.8057 30.6659 26.2646 30.0996 26.2646Z" fill="#69CDFF"/>
<path d="M30.0996 21.6162C29.5333 21.6162 29.0742 21.1572 29.0742 20.5908V19.3604C29.0742 18.7941 29.5333 18.335 30.0996 18.335C30.6659 18.335 31.125 18.7941 31.125 19.3604V20.5908C31.125 21.1572 30.6659 21.6162 30.0996 21.6162Z" fill="#69CDFF"/>
<path d="M6.85742 30.9131C6.29113 30.9131 5.83203 30.4541 5.83203 29.8877V28.6572C5.83203 28.0909 6.29113 27.6318 6.85742 27.6318C7.42371 27.6318 7.88281 28.0909 7.88281 28.6572V29.8877C7.88281 30.4541 7.42385 30.9131 6.85742 30.9131Z" fill="#69CDFF"/>
<path d="M6.85742 26.2646C6.29113 26.2646 5.83203 25.8057 5.83203 25.2393V24.0088C5.83203 23.4425 6.29113 22.9834 6.85742 22.9834C7.42371 22.9834 7.88281 23.4425 7.88281 24.0088V25.2393C7.88281 25.8057 7.42385 26.2646 6.85742 26.2646Z" fill="#69CDFF"/>
<path d="M6.85742 21.6162C6.29113 21.6162 5.83203 21.1572 5.83203 20.5908V19.3604C5.83203 18.7941 6.29113 18.335 6.85742 18.335C7.42371 18.335 7.88281 18.7941 7.88281 19.3604V20.5908C7.88281 21.1572 7.42385 21.6162 6.85742 21.6162Z" fill="#69CDFF"/>
<path d="M26.0996 16.5439H24.8691C24.3029 16.5439 23.8438 16.085 23.8438 15.5186C23.8438 14.9521 24.3029 14.4932 24.8691 14.4932H26.0996C26.6659 14.4932 27.125 14.9521 27.125 15.5186C27.125 16.085 26.6659 16.5439 26.0996 16.5439Z" fill="#69CDFF"/>
<path d="M21.4512 16.5439H20.2207C19.6544 16.5439 19.1953 16.085 19.1953 15.5186C19.1953 14.9521 19.6544 14.4932 20.2207 14.4932H21.4512C22.0175 14.4932 22.4766 14.9521 22.4766 15.5186C22.4766 16.085 22.0175 16.5439 21.4512 16.5439Z" fill="#69CDFF"/>
<path d="M16.8027 16.5439H15.5723C15.006 16.5439 14.5469 16.085 14.5469 15.5186C14.5469 14.9521 15.006 14.4932 15.5723 14.4932H16.8027C17.369 14.4932 17.8281 14.9521 17.8281 15.5186C17.8281 16.085 17.3692 16.5439 16.8027 16.5439Z" fill="#69CDFF"/>
<path d="M12.1543 16.5439H10.9238C10.3575 16.5439 9.89844 16.085 9.89844 15.5186C9.89844 14.9521 10.3575 14.4932 10.9238 14.4932H12.1543C12.7206 14.4932 13.1797 14.9521 13.1797 15.5186C13.1797 16.085 12.7207 16.5439 12.1543 16.5439Z" fill="#69CDFF"/>
<path d="M27.3633 30.6943C27.3633 31.0703 27.0557 31.3779 26.6797 31.3779H10.2734C9.89746 31.3779 9.58984 31.0703 9.58984 30.6943V18.9365C9.58984 18.5605 9.89746 18.2529 10.2734 18.2529H26.6797C27.0557 18.2529 27.3633 18.5605 27.3633 18.9365V30.6943Z" fill="#5DC1D8"/>
<path d="M12.3047 30.6943V18.9365C12.3047 18.5605 12.6123 18.2529 12.9883 18.2529H10.2754C9.89941 18.2529 9.5918 18.5605 9.5918 18.9365V30.6943C9.5918 31.0703 9.89941 31.3779 10.2754 31.3779H12.9883C12.6123 31.3779 12.3047 31.0703 12.3047 30.6943Z" fill="#28A5A5"/>
<path d="M32.0117 16.5439C32.0117 16.9199 31.7041 17.2275 31.3281 17.2275H28.457C28.0811 17.2275 27.7734 16.9199 27.7734 16.5439V13.6729C27.7734 13.2969 28.0811 12.9893 28.457 12.9893H31.3281C31.7041 12.9893 32.0117 13.2969 32.0117 13.6729V16.5439Z" fill="#52BBEF"/>
<path d="M9.3164 16.8174C9.3164 17.1934 9.00879 17.501 8.63281 17.501H5.76172C5.38574 17.501 5.07812 17.1934 5.07812 16.8174V13.9463C5.07812 13.5703 5.38574 13.2627 5.76172 13.2627H8.63281C9.00879 13.2627 9.3164 13.5703 9.3164 13.9463V16.8174Z" fill="#52BBEF"/>
<path d="M32.0117 35.667C32.0117 36.043 31.7041 36.3506 31.3281 36.3506H28.457C28.0811 36.3506 27.7734 36.043 27.7734 35.667V32.7959C27.7734 32.4199 28.0811 32.1123 28.457 32.1123H31.3281C31.7041 32.1123 32.0117 32.4199 32.0117 32.7959V35.667Z" fill="#52BBEF"/>
<path d="M9.3164 35.667C9.3164 36.043 9.00879 36.3506 8.63281 36.3506H5.76172C5.38574 36.3506 5.07812 36.043 5.07812 35.667V32.7959C5.07812 32.4199 5.38574 32.1123 5.76172 32.1123H8.63281C9.00879 32.1123 9.3164 32.4199 9.3164 32.7959V35.667Z" fill="#52BBEF"/>
<path d="M29.2804 16.5439V13.6729C29.2804 13.2969 29.588 12.9893 29.9639 12.9893H28.457C28.0811 12.9893 27.7734 13.2969 27.7734 13.6729V16.5439C27.7734 16.9199 28.0811 17.2275 28.457 17.2275H29.9639C29.588 17.2275 29.2804 16.9199 29.2804 16.5439Z" fill="#1E99D6"/>
<path d="M6.58504 16.8174V13.9463C6.58504 13.5703 6.89266 13.2627 7.26863 13.2627H5.76172C5.38574 13.2627 5.07812 13.5703 5.07812 13.9463V16.8174C5.07812 17.1934 5.38574 17.501 5.76172 17.501H7.26863C6.89266 17.501 6.58504 17.1934 6.58504 16.8174Z" fill="#1E99D6"/>
<path d="M29.2804 35.667V32.7959C29.2804 32.4199 29.588 32.1123 29.9639 32.1123H28.457C28.0811 32.1123 27.7734 32.4199 27.7734 32.7959V35.667C27.7734 36.043 28.0811 36.3506 28.457 36.3506H29.9639C29.588 36.3506 29.2804 36.043 29.2804 35.667Z" fill="#1E99D6"/>
<path d="M6.58504 35.667V32.7959C6.58504 32.4199 6.89266 32.1123 7.26863 32.1123H5.76172C5.38574 32.1123 5.07812 32.4199 5.07812 32.7959V35.667C5.07812 36.043 5.38574 36.3506 5.76172 36.3506H7.26863C6.89266 36.3506 6.58504 36.043 6.58504 35.667Z" fill="#1E99D6"/>
<path d="M59.5349 50.1444C59.5137 50.0867 59.5154 50.0539 59.5184 50.0433C59.5185 50.0433 59.5269 50.0424 59.5346 50.0424C59.5502 50.0424 59.5774 50.0456 59.6186 50.0608L65.375 52.1751V39.2363C65.375 38.8604 65.0674 38.5527 64.6914 38.5527H42.9531C42.5771 38.5527 42.2695 38.8604 42.2695 39.2363V54.9316C42.2695 55.3076 42.5771 55.6152 42.9531 55.6152H61.5441L59.5349 50.1444Z" fill="#5DC1D8"/>
<path d="M44.9823 54.9316V39.2363C44.9823 38.8604 45.2899 38.5527 45.6659 38.5527H42.9531C42.5771 38.5527 42.2695 38.8604 42.2695 39.2363V54.9316C42.2695 55.3076 42.5771 55.6152 42.9531 55.6152H45.6659C45.2899 55.6152 44.9823 55.3076 44.9823 54.9316Z" fill="#28A5A5"/>
<path d="M59.6667 49.9329C59.4415 49.8501 59.3247 49.9668 59.4075 50.1921L63.012 60.006C63.0948 60.2313 63.3013 60.2767 63.471 60.1071L65.3847 58.1934C65.5543 58.0237 65.832 58.0237 66.0019 58.1934L68.2069 60.3987C68.3766 60.5684 68.6543 60.5684 68.8241 60.3987L69.8733 59.3495C70.0429 59.1798 70.0429 58.902 69.8733 58.7324L67.6681 56.5272C67.4985 56.3576 67.4985 56.0799 67.6681 55.9101L69.5817 53.9964C69.7515 53.8269 69.7059 53.6203 69.4806 53.5376L59.6667 49.9329Z" fill="#293D7C"/>
</g>
<defs>
<clipPath id="clip0">
<rect width="70" height="70" fill="white"/>
</clipPath>
</defs>
</svg>
