<svg width="614" height="574" viewBox="0 0 614 574" fill="none" xmlns="http://www.w3.org/2000/svg">
<g clip-path="url(#clip0)">
<path opacity="0.24" d="M19.6099 377.089C10.2462 360.113 2.02726 341.969 0.378891 322.646C-4.19992 268.948 40.8899 225.438 61.8838 175.793C70.5378 155.325 75.1623 133.301 84.1025 112.96C110.648 52.5766 173.538 13.6224 238.523 2.3814C256.197 -0.67496 275.039 -1.83111 291.454 5.40341C311.555 14.2749 324.41 34.021 341.695 47.5399C393.424 88.1769 470.131 66.2787 532.437 87.4558C582.209 104.363 621.724 156.413 612.211 208.119C602.905 258.887 552.16 296.17 548.612 347.658C547.009 370.953 555.537 393.733 557.266 417.016C560.7 463.17 534.543 510.16 493.597 531.715C472.992 542.544 449.824 547.157 427.01 551.633C387.128 559.451 341.592 575.752 300.76 573.852C262.985 572.089 221.856 554.689 188.465 537.977C119.943 503.704 54.2715 446.538 19.6099 377.089Z" fill="#173D9F"/>
<path d="M291.041 545.622C289.498 546.751 288.208 548.19 287.253 549.846C286.784 550.678 286.576 551.631 286.655 552.582C286.735 553.533 287.099 554.439 287.699 555.181C289.107 556.634 291.408 556.612 293.422 556.405C301.012 555.631 308.458 553.813 315.55 551.002C317.679 550.155 319.945 549.079 320.998 547.03C321.554 545.736 321.835 544.341 321.823 542.932L322.212 536.625C322.303 535.148 322.109 533.248 320.689 532.836C320.314 532.749 319.926 532.729 319.545 532.779C314.966 533.031 308.304 532.103 304.274 534.461C299.478 537.289 295.414 542.12 291.041 545.622Z" fill="#173D9F"/>
<path d="M373.494 550.167C374.87 551.493 375.961 553.086 376.699 554.849C377.05 555.736 377.128 556.707 376.924 557.639C376.721 558.571 376.243 559.421 375.554 560.08C373.963 561.339 371.685 561.007 369.727 560.538C362.308 558.768 355.17 555.979 348.516 552.25C346.513 551.106 344.407 549.766 343.64 547.603C343.263 546.244 343.17 544.822 343.365 543.425L343.811 537.117C343.914 535.641 344.361 533.786 345.815 533.569C346.198 533.529 346.585 533.556 346.959 533.649C351.424 534.507 358.189 534.473 361.84 537.346C366.225 540.792 369.624 546.115 373.494 550.167Z" fill="#173D9F"/>
<path d="M291.041 545.622C289.498 546.751 288.208 548.19 287.253 549.846C286.784 550.678 286.576 551.631 286.655 552.582C286.735 553.533 287.099 554.439 287.699 555.181C289.107 556.634 291.408 556.612 293.422 556.405C301.012 555.631 308.458 553.813 315.55 551.002C317.679 550.155 319.945 549.079 320.998 547.03C321.554 545.736 321.835 544.341 321.823 542.932L322.212 536.625C322.303 535.148 322.109 533.248 320.689 532.836C320.314 532.749 319.926 532.729 319.545 532.779C314.966 533.031 308.304 532.103 304.274 534.461C299.478 537.289 295.414 542.12 291.041 545.622Z" fill="url(#paint0_linear)"/>
<path d="M373.494 550.167C374.87 551.493 375.961 553.086 376.699 554.849C377.05 555.736 377.128 556.707 376.924 557.639C376.721 558.571 376.243 559.421 375.554 560.08C373.963 561.339 371.685 561.007 369.727 560.538C362.308 558.768 355.17 555.979 348.516 552.25C346.513 551.106 344.407 549.766 343.64 547.603C343.263 546.244 343.17 544.822 343.365 543.425L343.811 537.117C343.914 535.641 344.361 533.786 345.815 533.569C346.198 533.529 346.585 533.556 346.959 533.649C351.424 534.507 358.189 534.473 361.84 537.346C366.225 540.792 369.624 546.115 373.494 550.167Z" fill="url(#paint1_linear)"/>
<path d="M298.791 343.274L301.641 418.492L304.503 533.707C304.503 533.707 309.54 537.347 321.891 534.302L333.063 415.631L338.787 362.31L353.061 420.393L345.449 534.611C345.449 534.611 352.111 540.335 363.535 540.335L384.483 420.358L369.247 332.8L298.791 343.274Z" fill="#606161"/>
<path d="M298.791 343.274L301.641 418.492L304.503 533.707C304.503 533.707 309.505 535.252 321.891 534.302L333.063 415.631L338.787 362.31L353.061 420.393L345.449 534.611C345.449 534.611 352.111 540.335 363.535 540.335L384.483 420.358L369.247 332.8L298.791 343.274Z" fill="url(#paint2_linear)"/>
<path d="M303.552 206.15C303.552 206.15 284.733 216.452 282.604 218.535C280.692 220.435 296.878 337.584 297.84 343.308C298.802 349.031 330.212 347.108 343.537 343.308C352.416 340.631 361.024 337.124 369.247 332.834C369.247 332.834 362.584 210.946 359.734 209.046C356.884 207.145 330.212 201.422 330.212 201.422L303.552 206.15Z" fill="#173D9F"/>
<path d="M359.734 209.012C359.734 209.012 365.458 210.912 368.297 214.735C371.136 218.559 394.007 264.244 391.191 273.768C388.375 283.291 378.805 286.153 375.955 284.242C373.104 282.33 367.347 269.04 366.454 265.194C365.561 261.348 363.661 248.836 363.661 248.836L359.734 209.012Z" fill="#173D9F"/>
<path d="M387.905 291.751C389.322 291.924 390.761 291.763 392.106 291.281C393.534 290.613 394.827 289.685 395.918 288.546C398.199 286.568 400.281 284.371 402.133 281.986C403.649 279.809 404.92 277.471 405.922 275.015C409.306 267.192 411.445 258.888 412.264 250.404C412.619 246.821 412.699 243.067 411.176 239.816C410.981 239.326 410.666 238.893 410.261 238.556C409.921 238.35 409.542 238.217 409.148 238.165C408.753 238.114 408.353 238.146 407.971 238.259C404.034 239.06 401.767 243.078 399.787 246.581C396.003 253.259 391.447 259.467 386.21 265.079C383.573 267.688 381.111 270.468 378.839 273.401C376.423 276.835 373.642 281.712 376.549 285.443C377.911 287.214 379.621 288.688 381.574 289.773C383.527 290.857 385.681 291.531 387.905 291.751Z" fill="#173D9F"/>
<path d="M387.905 291.751C389.322 291.924 390.761 291.763 392.106 291.281C393.534 290.613 394.827 289.685 395.918 288.546C398.199 286.568 400.281 284.371 402.133 281.986C403.649 279.809 404.92 277.471 405.922 275.015C409.306 267.192 411.445 258.888 412.264 250.404C412.619 246.821 412.699 243.067 411.176 239.816C410.981 239.326 410.666 238.893 410.261 238.556C409.921 238.35 409.542 238.217 409.148 238.165C408.753 238.114 408.353 238.146 407.971 238.259C404.034 239.06 401.767 243.078 399.787 246.581C396.003 253.259 391.447 259.467 386.21 265.079C383.573 267.688 381.111 270.468 378.839 273.401C376.423 276.835 373.642 281.712 376.549 285.443C377.911 287.214 379.621 288.688 381.574 289.773C383.527 290.857 385.681 291.531 387.905 291.751Z" fill="url(#paint3_linear)"/>
<path d="M283.497 217.814C283.497 217.814 270.218 224.248 267.368 233.772C264.517 243.296 244.474 290.892 251.182 297.566C251.754 298.138 252.612 299.077 253.654 300.222C255.055 301.776 256.847 302.926 258.844 303.553C260.841 304.18 262.969 304.26 265.007 303.786C267.045 303.311 268.918 302.299 270.433 300.855C271.947 299.411 273.047 297.587 273.618 295.574L285.878 252.407C285.878 252.407 289.151 224.717 283.497 217.814Z" fill="#173D9F"/>
<path d="M269.016 299.764C268.779 300.379 268.35 300.901 267.791 301.252C267.009 301.848 266.156 302.344 265.25 302.728V302.786C262.512 304.105 259.451 304.603 256.436 304.217C250.552 303.427 245.081 297.005 241.36 291.007C240.731 289.988 240.776 287.653 240.353 286.542C240.008 285.575 239.898 284.539 240.032 283.52C240.307 277.625 239.769 268.227 240.307 261.908C240.311 261.449 240.346 260.99 240.41 260.535C240.513 259.63 240.776 258.566 241.555 258.406C242.081 258.343 242.611 258.478 243.043 258.783C248.663 262.069 254.925 277.247 258.439 282.822C261.622 287.767 267.242 292.323 268.948 298.012C269.157 298.574 269.181 299.188 269.016 299.764Z" fill="#173D9F"/>
<path d="M265.41 302.305C265.353 302.465 265.296 302.625 265.25 302.728V302.786C262.512 304.105 259.451 304.602 256.436 304.216C250.552 303.427 245.081 297.005 241.36 291.007C240.731 289.988 240.776 287.653 240.353 286.542C240.008 285.575 239.898 284.539 240.032 283.52C240.307 277.625 239.769 268.227 240.307 261.908C245.722 266.109 251.502 280.063 254.845 285.375C258.027 290.308 263.659 294.876 265.353 300.553C265.552 301.117 265.572 301.729 265.41 302.305Z" fill="url(#paint4_linear)"/>
<path d="M301.641 194.726C301.641 194.726 304.502 207.1 303.552 211.896C302.602 216.693 310.214 229.994 319.738 229.994C329.262 229.994 329.262 213.808 329.262 211.896C329.262 209.985 325.256 205.99 326.206 201.228C327.156 196.466 302.602 189.014 301.641 194.726Z" fill="#F5E0CD"/>
<path d="M306.929 209.423C307.859 210.788 308.99 212.003 310.283 213.029C312.559 214.671 315.307 215.527 318.113 215.467C320.156 215.56 322.156 214.854 323.688 213.499C324.634 212.334 325.187 210.899 325.267 209.4C325.622 206.901 325.805 204.381 325.817 201.857C325.817 200.712 325.588 199.201 324.249 198.755C323.53 198.583 322.781 198.583 322.062 198.755C317.783 199.441 313.441 199.648 309.116 199.373C306.139 199.178 302.156 198.32 302.854 201.559C303.671 204.427 305.057 207.102 306.929 209.423Z" fill="url(#paint5_linear)"/>
<path d="M303.735 210.087C303.735 210.087 311.404 228.048 317.952 229.959C317.952 229.959 319.738 230.909 314.976 233.771C310.214 236.633 296.878 222.324 298.79 211.862C298.99 210.526 299.532 209.266 300.362 208.201C301.192 207.136 302.283 206.304 303.529 205.783L303.735 210.087Z" fill="white"/>
<path d="M325.92 203.15C325.92 203.15 329.469 219.359 324.123 228.471C324.123 228.471 326.412 231.905 328.313 231.905C330.213 231.905 334.975 220.458 333.063 211.907C331.953 206.859 326.87 201.788 325.92 203.15Z" fill="white"/>
<path d="M329.148 165.238C329.148 165.238 331.048 189.998 329.148 196.671C327.248 203.345 321.524 209.046 315.812 209.046C310.1 209.046 301.526 204.284 297.726 195.71C293.926 187.136 292.002 166.199 292.964 163.338C293.926 160.476 299.661 151.479 314.862 152.864C325.336 153.814 329.148 161.437 329.148 165.238Z" fill="#F5E0CD"/>
<path d="M332.994 180.371C332.875 181.047 332.679 181.708 332.41 182.34C332.263 182.838 332.018 183.301 331.689 183.702C331.203 184.155 330.607 184.475 329.961 184.629C329.696 184.738 329.407 184.77 329.125 184.721C327.259 184.206 327.488 179.535 328.427 178.265C328.942 177.578 330.808 176.09 331.632 176.353C332.857 176.731 333.143 179.387 332.994 180.371Z" fill="#F5E0CD"/>
<path d="M293.949 182.786C293.706 182.55 293.4 182.391 293.068 182.328C292.817 182.318 292.569 182.386 292.358 182.523C292.044 182.735 291.784 183.017 291.598 183.347C291.411 183.677 291.303 184.045 291.282 184.423C291.232 185.198 291.333 185.976 291.579 186.712C292.037 188.361 292.781 190.146 294.327 190.879C294.498 190.988 294.696 191.046 294.899 191.046C295.102 191.046 295.3 190.988 295.471 190.879C295.628 190.73 295.739 190.539 295.792 190.33C296.38 188.987 296.684 187.537 296.685 186.071C296.502 184.755 294.933 183.599 293.949 182.786Z" fill="#F5E0CD"/>
<path d="M400.796 93.751H240.835C237.763 93.7571 234.82 94.9814 232.65 97.1554C230.48 99.3294 229.262 102.275 229.262 105.347V400.989C229.26 402.509 229.559 404.015 230.14 405.42C230.721 406.825 231.573 408.101 232.648 409.176C233.723 410.251 234.999 411.103 236.404 411.684C237.809 412.265 239.314 412.564 240.835 412.562H400.796C402.32 412.568 403.83 412.273 405.24 411.695C406.65 411.116 407.932 410.265 409.012 409.19C410.093 408.114 410.951 406.837 411.536 405.43C412.122 404.022 412.424 402.513 412.426 400.989V105.347C412.424 103.822 412.122 102.312 411.537 100.903C410.951 99.4947 410.094 98.2155 409.014 97.1385C407.934 96.0616 406.652 95.2081 405.242 94.6269C403.832 94.0456 402.321 93.748 400.796 93.751ZM396.343 376.733H243.17V106.961H396.366L396.343 376.733Z" fill="#173D9F"/>
<path d="M327.797 404.366C333.885 404.366 338.82 399.431 338.82 393.343C338.82 387.255 333.885 382.319 327.797 382.319C321.709 382.319 316.773 387.255 316.773 393.343C316.773 399.431 321.709 404.366 327.797 404.366Z" fill="url(#paint6_linear)"/>
<path d="M229.089 232.902C233.407 232.678 237.734 233.114 241.921 234.195C242.767 234.372 243.574 234.702 244.302 235.168C244.663 235.403 244.964 235.718 245.181 236.09C245.398 236.462 245.524 236.879 245.55 237.309C245.55 238.568 244.462 239.507 243.466 240.262C244.375 240.89 245.111 241.736 245.607 242.723C245.826 243.224 245.859 243.787 245.699 244.309C245.54 244.832 245.198 245.281 244.737 245.574C244.462 245.7 244.107 245.791 244.027 246.077C243.947 246.364 244.199 246.627 244.394 246.844C244.757 247.236 245.01 247.717 245.128 248.238C245.247 248.759 245.225 249.301 245.066 249.811C244.907 250.321 244.616 250.78 244.222 251.142C243.829 251.503 243.347 251.754 242.825 251.87C243.039 251.887 243.247 251.949 243.435 252.051C243.623 252.154 243.787 252.296 243.917 252.466C244.047 252.637 244.139 252.833 244.187 253.042C244.236 253.251 244.24 253.468 244.199 253.678C244.086 254.099 243.863 254.482 243.554 254.787C243.244 255.093 242.858 255.311 242.436 255.418C241.591 255.63 240.715 255.688 239.849 255.59C236.85 255.43 233.736 255.338 230.943 256.46C229.967 257.01 228.87 257.312 227.75 257.341C227.237 257.254 226.752 257.046 226.334 256.736C225.916 256.426 225.578 256.021 225.346 255.556C224.894 254.615 224.648 253.588 224.625 252.545C224.373 248.172 225.769 243.765 225.048 239.438C224.43 235.844 224.705 233.119 229.089 232.902Z" fill="#F5E0CD"/>
<path d="M402.742 219.817C400.292 220.195 397.717 220.607 395.736 222.107C393.756 223.606 392.646 226.56 393.985 228.643C394.397 229.284 395.027 229.856 395.073 230.612C395.042 231.192 394.865 231.755 394.557 232.249C394.032 233.417 393.821 234.703 393.945 235.978C394.07 237.253 394.526 238.473 395.267 239.518C394.443 241.933 393.928 245.012 395.84 246.695C397.499 248.149 400.041 247.691 402.181 247.153L407.905 245.71C409.123 245.539 410.248 244.962 411.098 244.074C411.46 243.528 411.713 242.918 411.842 242.276C413.434 236.381 414.395 229.593 413.479 223.492C412.564 217.391 407.664 219.05 402.742 219.817Z" fill="#F5E0CD"/>
<path d="M297.898 144.496C301.996 140.845 307.056 138.178 310.181 133.645L310.684 138.59L316.305 134.011C316.081 135.169 316.221 136.369 316.706 137.445C317.386 136.23 318.399 135.233 319.625 134.572C319.568 135.993 319.83 137.409 320.392 138.716C321.798 137.345 323.032 135.807 324.066 134.137C323.862 134.837 323.799 135.571 323.88 136.296C323.96 137.02 324.183 137.722 324.535 138.361C325.127 138.057 325.645 137.629 326.054 137.105C326.464 136.581 326.754 135.975 326.905 135.327C328.405 140.684 331.404 145.549 332.628 150.975C333.624 155.348 333.418 159.904 333.212 164.391C332.988 169.174 331.755 173.855 329.595 178.128C328.29 173.869 327.706 170.607 325.955 166.509C325.21 164.388 324.042 162.441 322.521 160.785C319.087 157.477 313.626 157.569 308.784 157.958C304.377 158.313 299.535 158.965 296.639 162.296C294.269 165.032 293.823 168.936 294.052 172.542C294.281 176.147 295.082 179.742 294.762 183.348C291.648 179.684 288.626 175.701 287.619 171.008C287.092 168.635 287.23 166.163 288.019 163.865C288.866 161.507 291.27 160.316 292.106 158.301C292.942 156.287 292.106 153.665 292.85 151.433C293.941 148.743 295.674 146.362 297.898 144.496Z" fill="#606161"/>
<path d="M297.898 144.496C301.996 140.845 307.056 138.178 310.181 133.645L310.684 138.59L316.305 134.011C316.081 135.169 316.221 136.369 316.706 137.445C317.386 136.23 318.399 135.233 319.625 134.572C319.568 135.993 319.83 137.409 320.392 138.716C321.798 137.345 323.032 135.807 324.066 134.137C323.862 134.837 323.799 135.571 323.88 136.296C323.96 137.02 324.183 137.722 324.535 138.361C325.127 138.057 325.645 137.629 326.054 137.105C326.464 136.581 326.754 135.975 326.905 135.327C328.405 140.684 331.404 145.549 332.628 150.975C333.624 155.348 333.418 159.904 333.212 164.391C332.988 169.174 331.755 173.855 329.595 178.128C328.29 173.869 327.706 170.607 325.955 166.509C325.21 164.388 324.042 162.441 322.521 160.785C319.087 157.477 313.626 157.569 308.784 157.958C304.377 158.313 299.535 158.965 296.639 162.296C294.269 165.032 293.823 168.936 294.052 172.542C294.281 176.147 295.082 179.742 294.762 183.348C291.648 179.684 288.626 175.701 287.619 171.008C287.092 168.635 287.23 166.163 288.019 163.865C288.866 161.507 291.27 160.316 292.106 158.301C292.942 156.287 292.106 153.665 292.85 151.433C293.941 148.743 295.674 146.362 297.898 144.496Z" fill="url(#paint7_linear)"/>
<path d="M434.701 126.112H399.02C389.676 126.112 382.102 133.687 382.102 143.031V161.621C382.102 170.965 389.676 178.54 399.02 178.54H434.701C444.045 178.54 451.619 170.965 451.619 161.621V143.031C451.619 133.687 444.045 126.112 434.701 126.112Z" fill="#173D9F"/>
<path d="M434.701 126.112H399.02C389.676 126.112 382.102 133.687 382.102 143.031V161.621C382.102 170.965 389.676 178.54 399.02 178.54H434.701C444.045 178.54 451.619 170.965 451.619 161.621V143.031C451.619 133.687 444.045 126.112 434.701 126.112Z" fill="url(#paint8_linear)"/>
<path d="M410.594 140.363L429.687 152.325L410.594 164.013V140.363Z" fill="#173D9F"/>
<path d="M517.36 233.039V261.576C517.36 264.743 516.102 267.78 513.863 270.019C511.624 272.258 508.587 273.516 505.421 273.516H503.269V286.107L496.755 273.516H447.213C445.644 273.517 444.091 273.209 442.642 272.61C441.193 272.01 439.876 271.131 438.767 270.022C437.658 268.913 436.779 267.596 436.179 266.147C435.58 264.698 435.272 263.145 435.273 261.576V233.039C435.272 231.471 435.58 229.917 436.179 228.468C436.779 227.019 437.658 225.702 438.767 224.593C439.876 223.484 441.193 222.605 442.642 222.005C444.091 221.406 445.644 221.098 447.213 221.1H505.421C506.989 221.098 508.542 221.406 509.992 222.005C511.441 222.605 512.758 223.484 513.867 224.593C514.976 225.702 515.855 227.019 516.454 228.468C517.054 229.917 517.362 231.471 517.36 233.039Z" fill="#173D9F"/>
<path d="M517.36 233.039V261.576C517.36 264.743 516.102 267.78 513.863 270.019C511.624 272.258 508.587 273.516 505.421 273.516H503.269V286.107L496.755 273.516H447.213C445.644 273.517 444.091 273.209 442.642 272.61C441.193 272.01 439.876 271.131 438.767 270.022C437.658 268.913 436.779 267.596 436.179 266.147C435.58 264.698 435.272 263.145 435.273 261.576V233.039C435.272 231.471 435.58 229.917 436.179 228.468C436.779 227.019 437.658 225.702 438.767 224.593C439.876 223.484 441.193 222.605 442.642 222.005C444.091 221.406 445.644 221.098 447.213 221.1H505.421C506.989 221.098 508.542 221.406 509.992 222.005C511.441 222.605 512.758 223.484 513.867 224.593C514.976 225.702 515.855 227.019 516.454 228.468C517.054 229.917 517.362 231.471 517.36 233.039Z" fill="url(#paint9_linear)"/>
<path d="M506.771 231.459H445.609V234.882H506.771V231.459Z" fill="#173D9F"/>
<path d="M506.771 240.49H445.609V243.913H506.771V240.49Z" fill="#173D9F"/>
<path d="M506.771 249.511H445.609V252.933H506.771V249.511Z" fill="#173D9F"/>
<path d="M194.428 319.086C194.428 336.097 176.742 349.856 154.924 349.856C151.261 349.866 147.609 349.459 144.038 348.643L126.799 357.468L133.667 344.991C122.666 339.576 115.352 330.018 115.352 319.086C115.352 302.087 133.037 288.328 154.855 288.328C176.673 288.328 194.428 302.087 194.428 319.086Z" fill="#173D9F"/>
<path d="M194.428 319.086C194.428 336.097 176.742 349.856 154.924 349.856C151.261 349.866 147.609 349.459 144.038 348.643L126.799 357.468L133.667 344.991C122.666 339.576 115.352 330.018 115.352 319.086C115.352 302.087 133.037 288.328 154.855 288.328C176.673 288.328 194.428 302.087 194.428 319.086Z" fill="url(#paint10_linear)"/>
<path d="M456.175 320.426C456.175 320.426 447.018 308.464 438.513 319.854C430.008 331.243 457.881 344.934 457.881 344.934C457.881 344.934 477.833 330.682 475.555 322.131C473.277 313.581 460.731 311.314 456.175 320.426Z" fill="#173D9F"/>
<path d="M151.501 204.181C151.501 204.181 142.343 192.219 133.838 203.608C125.333 214.998 153.218 228.689 153.218 228.689C153.218 228.689 173.159 214.437 170.881 205.886C168.603 197.335 156.068 195.069 151.501 204.181Z" fill="#173D9F"/>
<path d="M151.501 204.181C151.501 204.181 142.343 192.219 133.838 203.608C125.333 214.998 153.218 228.689 153.218 228.689C153.218 228.689 173.159 214.437 170.881 205.886C168.603 197.335 156.068 195.069 151.501 204.181Z" fill="url(#paint11_linear)"/>
<path d="M201.456 121.557H174.131C167.828 121.557 162.719 126.666 162.719 132.969V154.593C162.719 160.896 167.828 166.005 174.131 166.005H201.456C207.759 166.005 212.868 160.896 212.868 154.593V132.969C212.868 126.666 207.759 121.557 201.456 121.557Z" fill="#173D9F"/>
<path d="M196.373 129.729H179.581C176.142 129.729 173.354 132.517 173.354 135.957V152.749C173.354 156.189 176.142 158.977 179.581 158.977H196.373C199.813 158.977 202.601 156.189 202.601 152.749V135.957C202.601 132.517 199.813 129.729 196.373 129.729Z" stroke="white" stroke-width="1.77" stroke-miterlimit="10"/>
<path d="M188.063 148.055C191.009 148.055 193.397 145.667 193.397 142.721C193.397 139.775 191.009 137.387 188.063 137.387C185.117 137.387 182.729 139.775 182.729 142.721C182.729 145.667 185.117 148.055 188.063 148.055Z" stroke="white" stroke-width="1.77" stroke-miterlimit="10"/>
<path d="M196.237 137.594C197.217 137.594 198.011 136.799 198.011 135.819C198.011 134.839 197.217 134.045 196.237 134.045C195.257 134.045 194.463 134.839 194.463 135.819C194.463 136.799 195.257 137.594 196.237 137.594Z" stroke="white" stroke-width="0.88" stroke-miterlimit="10"/>
<path d="M270.162 64.2863C270.162 64.2863 280.258 82.0177 296.754 79.9573C313.249 77.8968 314.485 64.2863 314.485 64.2863H320.46L315.515 60.3714C315.515 60.3714 313.867 54.3961 309.334 55.7926C304.801 57.1891 298.608 63.0042 298.608 63.0042L280.293 46.5205C279.646 47.7041 279.342 49.0443 279.415 50.3909C279.488 51.7375 279.935 53.0372 280.705 54.1442C280.705 54.1442 278.232 57.647 280.911 59.7075C280.911 59.7075 280.911 63.2103 283.589 64.6526C283.555 64.6984 276.962 70.067 270.162 64.2863Z" fill="#173D9F"/>
</g>
<defs>
<linearGradient id="paint0_linear" x1="301.355" y1="564.35" x2="314.176" y2="490.848" gradientUnits="userSpaceOnUse">
<stop stop-color="#010101" stop-opacity="0"/>
<stop offset="0.95" stop-color="#010101"/>
</linearGradient>
<linearGradient id="paint1_linear" x1="13169.3" y1="14394.5" x2="13291.4" y2="12820.9" gradientUnits="userSpaceOnUse">
<stop stop-color="#010101" stop-opacity="0"/>
<stop offset="0.95" stop-color="#010101"/>
</linearGradient>
<linearGradient id="paint2_linear" x1="29026.3" y1="88194.7" x2="40481" y2="81546.4" gradientUnits="userSpaceOnUse">
<stop stop-color="#010101" stop-opacity="0"/>
<stop offset="0.95" stop-color="#010101"/>
</linearGradient>
<linearGradient id="paint3_linear" x1="15222.6" y1="13172.1" x2="17140" y2="13048.5" gradientUnits="userSpaceOnUse">
<stop stop-color="#010101" stop-opacity="0"/>
<stop offset="0.95" stop-color="#010101"/>
</linearGradient>
<linearGradient id="paint4_linear" x1="7983.27" y1="11200" x2="6048.83" y2="11049.3" gradientUnits="userSpaceOnUse">
<stop stop-color="#010101" stop-opacity="0"/>
<stop offset="0.95" stop-color="#010101"/>
</linearGradient>
<linearGradient id="paint5_linear" x1="8131.76" y1="3466.59" x2="8221.04" y2="2913.09" gradientUnits="userSpaceOnUse">
<stop stop-color="#010101" stop-opacity="0"/>
<stop offset="0.95" stop-color="#010101"/>
</linearGradient>
<linearGradient id="paint6_linear" x1="6659.02" y1="6872.74" x2="6558.27" y2="10643.7" gradientUnits="userSpaceOnUse">
<stop stop-color="#010101" stop-opacity="0"/>
<stop offset="0.95" stop-color="#010101"/>
</linearGradient>
<linearGradient id="paint7_linear" x1="14934.2" y1="7413.64" x2="16788.8" y2="7413.64" gradientUnits="userSpaceOnUse">
<stop stop-color="#010101" stop-opacity="0"/>
<stop offset="0.95" stop-color="#010101"/>
</linearGradient>
<linearGradient id="paint8_linear" x1="25684.5" y1="5120.87" x2="25723.6" y2="15247.3" gradientUnits="userSpaceOnUse">
<stop stop-color="#010101" stop-opacity="0"/>
<stop offset="0.95" stop-color="#010101"/>
</linearGradient>
<linearGradient id="paint9_linear" x1="473.816" y1="307.216" x2="481.416" y2="124.876" gradientUnits="userSpaceOnUse">
<stop stop-color="white" stop-opacity="0"/>
<stop offset="0.95" stop-color="white"/>
</linearGradient>
<linearGradient id="paint10_linear" x1="15991.5" y1="18527.5" x2="16383" y2="25624.4" gradientUnits="userSpaceOnUse">
<stop stop-color="white" stop-opacity="0"/>
<stop offset="0.95" stop-color="white"/>
</linearGradient>
<linearGradient id="paint11_linear" x1="7754.88" y1="5372.87" x2="7993.62" y2="7275.7" gradientUnits="userSpaceOnUse">
<stop stop-color="white" stop-opacity="0"/>
<stop offset="0.95" stop-color="white"/>
</linearGradient>
<clipPath id="clip0">
<rect width="613.675" height="574" fill="white"/>
</clipPath>
</defs>
</svg>
