<svg width="325" height="244" viewBox="0 0 325 244" fill="none" xmlns="http://www.w3.org/2000/svg">
<g clip-path="url(#clip0)">
<path d="M152.402 236.575C152.402 240.305 118.243 240.702 76.201 243.328C34.1983 245.951 0 240.305 0 236.575C0 232.846 34.3559 225.343 76.201 229.823C118.243 234.325 152.402 232.846 152.402 236.575Z" fill="#E6E6E6"/>
<path d="M313.078 0.000406789H222.757C218.399 0.000402055 214.17 1.48225 210.766 4.20237C207.362 6.92248 204.986 10.719 204.027 14.9678L158.39 217.256C157.892 219.463 157.883 221.751 158.364 223.962C158.845 226.172 159.804 228.25 161.173 230.051C162.543 231.852 164.29 233.331 166.292 234.386C168.295 235.44 170.504 236.044 172.764 236.156L265.615 240.727C270.587 240.972 275.478 239.401 279.376 236.307C283.273 233.212 285.911 228.807 286.797 223.912L312.686 80.8915L314.612 81.4414L319.565 54.3337L317.583 53.8384L324.809 13.9163C325.118 12.2063 325.047 10.4492 324.599 8.77017C324.151 7.09113 323.338 5.53152 322.217 4.20252C321.097 2.87352 319.697 1.80787 318.118 1.08153C316.538 0.355181 314.817 -0.0139648 313.078 0.000403927L313.078 0.000406789Z" fill="#3F3D56"/>
<path d="M234.648 4.36133H224.105C221.077 4.36133 218.141 5.39614 215.782 7.29396C213.424 9.19178 211.787 11.8385 211.141 14.7947L167.335 215.433C167.083 216.588 167.083 217.784 167.336 218.939C167.589 220.094 168.088 221.181 168.8 222.126C169.511 223.07 170.418 223.85 171.459 224.412C172.5 224.975 173.65 225.306 174.831 225.383L267.381 231.444C269.992 231.615 272.574 230.82 274.636 229.209C276.697 227.599 278.093 225.286 278.557 222.713L315.936 15.3336C316.178 13.9913 316.123 12.6124 315.773 11.294C315.423 9.97571 314.789 8.7501 313.913 7.70372C313.038 6.65735 311.943 5.8157 310.707 5.23818C309.471 4.66066 308.122 4.36133 306.758 4.36133H296.756C295.788 4.36133 294.847 4.68024 294.078 5.26868C293.31 5.85712 292.757 6.68227 292.506 7.61638C292.283 8.44104 291.795 9.16951 291.117 9.689C290.439 10.2085 289.608 10.49 288.753 10.49H241.271C239.598 10.49 237.986 9.85879 236.758 8.72253C235.53 7.58627 234.777 6.02873 234.648 4.36133V4.36133Z" fill="white"/>
<path d="M135.58 107.564L143.74 123.708L168.14 134.792C170.746 139.193 179.026 139.53 179.628 136.684C180.303 133.492 169.573 128.353 169.573 128.353L149.165 114.559L147.379 102.684L135.58 107.564Z" fill="#A0616A"/>
<path d="M136.544 215.902L135.039 227.933L143.768 228.535L144.67 215.902H136.544Z" fill="#A0616A"/>
<path d="M137.749 226.129C136.969 225.304 136.249 224.424 135.595 223.496C134.344 221.767 133.234 230.64 133.234 230.64C133.234 230.64 132.031 234.25 132.332 236.054C132.632 237.859 139.555 237.859 140.759 237.558C141.963 237.257 147.983 237.558 147.983 237.558H157.012C164.838 233.949 157.012 231.543 157.012 231.543C154.604 231.242 146.478 223.722 146.478 223.722L144.672 220.414C143.468 220.113 142.264 224.625 142.264 224.625L137.749 226.129Z" fill="#2F2E41"/>
<path d="M113.97 216.053L112.465 228.084L121.193 228.686L122.097 216.053H113.97Z" fill="#A0616A"/>
<path d="M115.175 226.279C114.395 225.454 113.675 224.575 113.021 223.647C111.77 221.917 110.66 230.791 110.66 230.791C110.66 230.791 109.456 234.099 109.757 235.904C110.058 237.709 116.981 237.708 118.185 237.408C119.389 237.107 125.408 237.708 125.408 237.708H134.438C142.264 234.099 134.438 231.693 134.438 231.693C132.03 231.392 123.904 223.873 123.904 223.873L122.098 220.564C120.894 220.263 119.69 224.775 119.69 224.775L115.175 226.279Z" fill="#2F2E41"/>
<path d="M123.902 138.453C122.699 139.956 123.3 145.07 123.3 145.07C123.3 145.07 121.194 161.612 122.097 163.116C122.999 164.62 121.495 165.823 120.592 167.929C119.689 170.034 118.786 175.147 118.786 175.147C113.669 179.358 113.97 198.608 113.97 198.608L112.164 215.752C112.766 217.557 121.194 217.858 122.398 217.557C123.601 217.256 127.213 190.186 127.213 190.186L135.34 174.847C135.34 174.847 134.738 215.752 134.738 217.557C134.738 219.362 142.864 218.459 144.67 218.459C146.476 218.459 146.476 188.382 146.476 188.382L148.282 180.561L157.914 144.769V140.558L156.409 138.453C156.409 138.453 125.106 136.949 123.902 138.453Z" fill="#2F2E41"/>
<path d="M137.147 70.1755C142.3 70.1755 146.477 66.001 146.477 60.8514C146.477 55.7019 142.3 51.5273 137.147 51.5273C131.994 51.5273 127.816 55.7019 127.816 60.8514C127.816 66.001 131.994 70.1755 137.147 70.1755Z" fill="#A0616A"/>
<path d="M141.811 65.2129C139.92 69.4215 141.04 75.2999 144.821 81.7556L129.471 74.537L131.879 72.4315L131.277 66.416L141.811 65.2129Z" fill="#A0616A"/>
<path d="M141.811 74.8379C143.821 76.0321 145.023 78.2263 145.714 80.4591C146.992 84.5928 147.761 88.8668 148.004 93.1864L148.734 106.119L157.763 140.407C149.937 147.024 145.423 145.521 134.888 140.107C124.354 134.693 123.15 141.911 123.15 141.911C123.15 141.911 122.247 141.61 123.15 140.708C124.053 139.806 123.15 140.708 122.247 139.806C121.344 138.903 122.247 139.806 122.548 138.903C122.849 138.001 122.548 138.603 122.247 138.302C121.946 138.001 123.451 135.294 123.451 135.294L121.043 112.736L118.033 80.8534C121.645 76.3417 131.878 72.4316 131.878 72.4316L141.209 79.0487C144.219 80.2518 141.811 75.4394 141.811 75.4394L141.811 74.8379Z" fill="white"/>
<path d="M113.067 99.9531L111.863 118L127.213 139.957C127.213 145.07 129.922 146.273 129.922 146.273C130.948 144.636 131.854 142.928 132.631 141.16C134.136 137.851 131.728 135.144 131.728 135.144L121.194 112.887L125.709 101.758L113.067 99.9531Z" fill="#A0616A"/>
<path d="M118.184 81.0041C113.067 82.8088 112.164 102.359 112.164 102.359C118.184 99.0508 125.407 104.465 125.407 104.465C125.407 104.465 126.912 99.3516 128.718 92.7345C129.263 90.8732 129.329 88.9043 128.908 87.011C128.487 85.1178 127.593 83.3618 126.31 81.9065C126.31 81.9065 123.3 79.1995 118.184 81.0041Z" fill="white"/>
<path d="M128.567 63.7091C129.755 62.7595 131.375 64.4856 131.375 64.4856L132.326 55.9392C132.326 55.9392 138.265 56.6514 142.066 55.7018C145.867 54.7522 146.461 59.1441 146.461 59.1441C146.657 57.3705 146.696 55.5831 146.579 53.8026C146.342 51.666 143.254 49.5294 137.79 48.105C132.326 46.6806 129.475 52.853 129.475 52.853C125.674 54.7522 127.379 64.6587 128.567 63.7091Z" fill="#2F2E41"/>
<path d="M287.171 144.625C287.352 144.632 287.53 144.573 287.672 144.461C287.814 144.348 287.911 144.188 287.946 144.01L308.698 31.1314C308.718 31.024 308.714 30.9135 308.687 30.8077C308.659 30.702 308.609 30.6035 308.539 30.5191C308.47 30.4347 308.383 30.3666 308.284 30.3193C308.186 30.2721 308.078 30.2469 307.969 30.2456L213.552 29.1465H213.544C213.373 29.1471 213.208 29.2054 213.075 29.3118C212.942 29.4182 212.849 29.5666 212.811 29.7326L188.346 138.948C188.322 139.055 188.322 139.165 188.345 139.272C188.369 139.379 188.415 139.479 188.482 139.566C188.548 139.653 188.632 139.725 188.729 139.775C188.826 139.826 188.933 139.855 189.042 139.861L287.171 144.625Z" fill="#E6E6E6"/>
<path d="M205.005 151.835C204.92 151.835 204.838 151.864 204.771 151.916C204.705 151.969 204.659 152.043 204.64 152.125L203.768 155.86C203.755 155.913 203.755 155.967 203.766 156.021C203.776 156.074 203.799 156.124 203.831 156.168C203.863 156.211 203.905 156.247 203.952 156.274C204 156.3 204.052 156.315 204.107 156.319L253.367 159.818C253.458 159.824 253.549 159.796 253.621 159.741C253.694 159.685 253.744 159.605 253.762 159.515L254.601 155.195C254.611 155.142 254.61 155.088 254.597 155.036C254.585 154.984 254.562 154.935 254.529 154.893C254.496 154.851 254.455 154.816 254.407 154.791C254.36 154.766 254.308 154.752 254.255 154.749L205.027 151.836C205.02 151.835 205.012 151.835 205.005 151.835Z" fill="#E6E6E6"/>
<path d="M264.852 173.694C264.941 173.701 265.029 173.676 265.101 173.624C265.173 173.572 265.225 173.496 265.246 173.41L266.314 169.08C266.327 169.027 266.328 168.971 266.318 168.918C266.307 168.864 266.285 168.813 266.253 168.769C266.22 168.725 266.179 168.688 266.131 168.662C266.083 168.635 266.03 168.619 265.975 168.616L203.068 164.219C202.982 164.212 202.897 164.235 202.827 164.284C202.756 164.333 202.705 164.404 202.681 164.486L201.572 168.228C201.556 168.282 201.553 168.338 201.561 168.393C201.57 168.448 201.591 168.501 201.622 168.547C201.654 168.593 201.696 168.631 201.744 168.659C201.792 168.687 201.846 168.704 201.902 168.708L264.852 173.694Z" fill="#E6E6E6"/>
<path d="M261.473 187.574C261.562 187.581 261.65 187.556 261.723 187.504C261.795 187.452 261.846 187.376 261.868 187.29L262.935 182.96C262.948 182.906 262.949 182.851 262.939 182.797C262.928 182.744 262.906 182.693 262.874 182.649C262.841 182.605 262.8 182.568 262.752 182.541C262.704 182.515 262.651 182.499 262.596 182.495L199.689 178.099C199.603 178.092 199.518 178.115 199.448 178.164C199.378 178.212 199.326 178.284 199.303 178.366L198.193 182.108C198.177 182.161 198.174 182.218 198.182 182.273C198.191 182.328 198.212 182.381 198.243 182.427C198.275 182.473 198.317 182.511 198.365 182.539C198.413 182.567 198.467 182.584 198.523 182.588L261.473 187.574Z" fill="#E6E6E6"/>
<path d="M232.502 211.384C232.591 211.393 232.681 211.37 232.755 211.318C232.828 211.266 232.88 211.189 232.901 211.101L235.158 202.079C235.172 202.027 235.173 201.972 235.163 201.918C235.153 201.865 235.131 201.814 235.1 201.77C235.068 201.726 235.027 201.689 234.98 201.662C234.932 201.635 234.88 201.619 234.826 201.614L196.194 198.367C196.103 198.361 196.014 198.387 195.941 198.44C195.868 198.494 195.817 198.572 195.796 198.659L193.87 207.318C193.859 207.37 193.858 207.424 193.869 207.476C193.88 207.528 193.902 207.577 193.933 207.62C193.965 207.663 194.005 207.699 194.051 207.726C194.097 207.752 194.149 207.768 194.202 207.773L232.502 211.384Z" fill="white"/>
</g>
<defs>
<clipPath id="clip0">
<rect width="325" height="244" fill="white"/>
</clipPath>
</defs>
</svg>
