<svg width="40" height="40" viewBox="0 0 40 40" fill="none" xmlns="http://www.w3.org/2000/svg">
<path d="M37.5 0H2.5C1.11812 0 0 1.11812 0 2.5V37.5C0 38.8819 1.11812 40 2.5 40H37.5C38.8819 40 40 38.8819 40 37.5V2.5C40 1.11812 38.8819 0 37.5 0ZM15 20C15 20 15.3955 15 20 15C24.6045 15 25 20 25 20C25 20 25.1441 25 20 25C14.8559 25 15 20 15 20ZM35 35H5V17.5H10H10.3539C10.1465 18.3032 10 19.1309 10 20C10 25.5225 14.4775 30 20 30C25.5225 30 30 25.5225 30 20C30 19.1309 29.8535 18.3032 29.646 17.5H30H35V35ZM35 12.5H27.5V5H35V12.5Z" fill="white"/>
</svg>
