<svg width="35" height="35" viewBox="0 0 35 35" fill="none" xmlns="http://www.w3.org/2000/svg">
<path d="M32.8125 0H2.1875C0.978359 0 0 0.978359 0 2.1875V32.8125C0 34.0216 0.978359 35 2.1875 35H32.8125C34.0216 35 35 34.0216 35 32.8125V2.1875C35 0.978359 34.0216 0 32.8125 0ZM13.125 17.5C13.125 17.5 13.471 13.125 17.5 13.125C21.529 13.125 21.875 17.5 21.875 17.5C21.875 17.5 22.0011 21.875 17.5 21.875C12.9989 21.875 13.125 17.5 13.125 17.5ZM30.625 30.625H4.375V15.3125H8.75H9.05967C8.87817 16.0153 8.75 16.7395 8.75 17.5C8.75 22.3322 12.6678 26.25 17.5 26.25C22.3322 26.25 26.25 22.3322 26.25 17.5C26.25 16.7395 26.1218 16.0153 25.9403 15.3125H26.25H30.625V30.625ZM30.625 10.9375H24.0625V4.375H30.625V10.9375Z" fill="white"/>
</svg>
