<svg width="40" height="40" viewBox="0 0 40 40" fill="none" xmlns="http://www.w3.org/2000/svg">
<path fill-rule="evenodd" clip-rule="evenodd" d="M22.9411 11.6714C23.0355 14.058 22.7759 16.5625 23.0355 18.7832C23.1063 19.4449 23.7205 20.1302 24.5479 19.303C26.7925 16.9877 28.7061 12.5459 28.9427 11.7659C29.0608 11.3408 29.391 11.152 29.793 11.152H35.7703C36.4561 11.152 37.6139 11.5062 36.7629 13.1603C35.2268 16.1136 33.668 17.5784 31.9197 20.1776C31.4234 20.9101 31.2102 21.6423 31.8009 22.2327C33.5256 23.958 35.5579 25.6817 36.692 27.4072C37.5186 28.7296 36.7392 29.7456 35.5578 29.7456H30.3127C29.6277 29.7456 29.0607 29.4619 28.5173 29.0134C27.383 28.1166 26.5558 26.9587 25.5404 25.9427C24.595 25.0213 23.9337 25.0441 23.4845 25.9182C23.1062 26.5803 23.0591 27.337 22.9883 28.7068C22.9411 29.369 22.492 29.651 21.8777 29.7455H19.3263C14.0105 29.7455 10.0647 25.7534 6.92266 20.0355C5.50461 17.4366 4.15812 15.0976 2.9532 12.1206C2.85883 11.5771 3.18914 11.152 3.99297 11.152H8.78898C9.47406 11.152 9.99391 11.4826 10.1827 11.8842C11.5299 14.9795 13.1123 17.7436 14.5776 19.3976C14.9079 19.7755 15.4985 19.9173 15.8769 19.3976C16.5383 18.4998 16.3495 13.4436 15.9713 12.7583C15.3098 11.5063 14.1992 11.9078 14.1992 11.6714C14.2464 10.9391 15.2154 10.2775 18.8065 10.2538C21.5946 10.2538 22.8938 10.514 22.9411 11.6714ZM2.00789 40H38.0149C39.1018 40 40 39.1031 40 38.0154V2.0082C40 0.897656 39.1018 0 38.0149 0H2.00789C0.897422 0 0 0.897656 0 2.0082V38.0153C0 39.103 0.897422 40 2.00789 40Z" fill="white"/>
</svg>
