<svg width="1028" height="771" viewBox="0 0 1028 771" fill="none" xmlns="http://www.w3.org/2000/svg">
<path d="M561.777 76.0205H201.438V498.94H561.777V76.0205Z" fill="#E6E6E6"/>
<path d="M848.332 102.209H606.084V327.804H848.332V102.209Z" fill="#E6E6E6"/>
<path d="M891.43 365.634H718.752V452.32H891.43V365.634Z" fill="#E6E6E6"/>
<path opacity="0.08" d="M504.49 304.005C504.49 304.005 485.986 299.199 481.36 312.306C476.734 325.413 433.789 308.348 428.624 347.258C425.745 368.949 384.548 408.013 330.964 419.937C277.379 431.862 273.781 498.965 273.781 498.965H419.423L516.081 357.229L504.49 304.005Z" fill="black"/>
<path opacity="0.45" d="M533.841 718.495C693.052 718.495 822.118 689.442 822.118 653.602C822.118 617.763 693.052 588.71 533.841 588.71C374.63 588.71 245.564 617.763 245.564 653.602C245.564 689.442 374.63 718.495 533.841 718.495Z" fill="#E6E6E6"/>
<path d="M489.815 362.371C489.815 362.371 363.705 349.007 368.459 415.724C373.214 482.441 443.914 624.511 443.914 624.511H598.808C598.808 624.511 716.36 444.225 659.178 386.246C601.995 328.267 588.914 378.048 489.815 362.371Z" fill="#192A56"/>
<path d="M443.686 646.201L537.954 671.644L621.582 629.187L634.277 606.571H549.981H415.879L443.686 646.201Z" fill="#24285B"/>
<path d="M428.986 434.613C440.783 395.112 418.475 351.961 376.276 383.572C347.338 405.237 313.028 474.345 311.255 538.261C307.143 685.239 487.428 527.133 509.839 442.965L487.659 429.858C487.659 429.858 450.266 500.353 409.532 515.619C380.131 526.644 411.536 492.977 428.986 434.613Z" fill="#192A56"/>
<path opacity="0.46" d="M428.986 434.613C440.783 395.112 418.475 351.961 376.276 383.572C347.338 405.237 313.028 474.345 311.255 538.261C307.143 685.239 487.428 527.133 509.839 442.965L487.659 429.858C487.659 429.858 450.266 500.353 409.532 515.619C380.131 526.644 411.536 492.977 428.986 434.613Z" fill="white"/>
<path d="M489.815 362.37C489.815 362.37 470.412 392.901 489.43 403.824C508.448 414.746 514.539 402.282 514.539 402.282C514.539 402.282 528.699 418.987 541.369 406.034C554.04 393.081 552.241 367.278 539.339 355.379C526.438 343.48 489.815 362.37 489.815 362.37Z" fill="white"/>
<path d="M494.236 363.296C495.152 368.946 495.744 374.643 496.009 380.361C496.266 388.071 498.759 399.764 511.095 402.026C530.088 405.547 535.125 375.529 535.125 375.529C535.125 375.529 547.075 347.259 526.515 343.533C507.909 339.935 490.458 337.467 494.236 363.296Z" fill="#F4A28C"/>
<path opacity="0.08" d="M567.429 405.648C567.429 405.648 555.659 430.372 585.419 481.078C602.458 510.119 549.953 558.563 549.953 558.563L419.32 571.644L443.915 624.509H598.809C598.809 624.509 666.863 513.794 672.105 456.843C677.348 399.891 567.429 405.648 567.429 405.648Z" fill="black"/>
<path d="M533.842 376.634C533.842 376.634 534.921 367.51 542.862 367.896C550.804 368.281 547.694 385.32 533.842 376.634Z" fill="#F4A28C"/>
<path d="M498.81 371.545C498.81 371.545 501.586 362.807 494.21 359.851C486.834 356.896 482.593 373.729 498.81 371.545Z" fill="#F4A28C"/>
<path d="M761.233 432.531C774.249 432.531 784.8 421.98 784.8 408.964C784.8 395.949 774.249 385.397 761.233 385.397C748.217 385.397 737.666 395.949 737.666 408.964C737.666 421.98 748.217 432.531 761.233 432.531Z" fill="#C9C9C9"/>
<path d="M449.827 598.528L438.904 498.966H606.083L589.403 603.616L591.794 617.032L448.053 618.162L449.827 598.528Z" fill="#FFD200"/>
<path opacity="0.08" d="M746.559 412.613C746.559 412.613 791.559 417.959 800.529 452.32H770.048L746.559 412.613Z" fill="black"/>
<path d="M517.109 646.201C517.109 646.201 548.849 657.304 537.952 671.644C527.055 685.985 509.836 662.161 509.836 662.161L517.109 646.201Z" fill="#192A56"/>
<path opacity="0.08" d="M606.084 498.966L572.957 542.656C553.614 568.193 527.487 587.784 497.553 599.196L448.055 618.085L580.615 617.032H591.795L589.405 603.616L606.084 498.966Z" fill="black"/>
<path d="M494.238 363.295C494.238 363.295 463.398 358.874 477.224 336.258C491.051 313.642 494.006 330.579 500.508 313.128C507.011 295.678 512.87 292.209 522.379 299.687C531.888 307.166 522.688 322.817 537.08 318.474C551.471 314.131 561.34 309.942 564.064 321.866C566.789 333.791 564.064 339.522 554.787 343.609C545.509 347.695 560.081 363.757 536.797 370.311C513.513 376.864 501.357 351.396 501.357 351.396L494.238 363.295Z" fill="#24285B"/>
<path d="M518.086 640.675C518.086 640.675 389.868 575.217 378.946 610.04C368.023 644.864 456.38 665.09 513.408 667.197L518.086 640.675Z" fill="#24285B"/>
<path d="M524.151 566.891C532.057 566.891 538.466 560.481 538.466 552.576C538.466 544.67 532.057 538.261 524.151 538.261C516.245 538.261 509.836 544.67 509.836 552.576C509.836 560.481 516.245 566.891 524.151 566.891Z" fill="white"/>
<path d="M549.26 645.789C549.26 645.789 651.52 544.454 672.62 574.317C693.719 604.181 615.566 650.312 561.878 669.638L549.26 645.789Z" fill="#24285B"/>
<path d="M553.268 653.448C553.268 653.448 522.968 680.433 540.418 688.375C557.868 696.316 561.698 669.639 561.698 669.639L553.268 653.448Z" fill="#192A56"/>
<path d="M567.431 405.65C566.295 394.26 569.711 382.884 576.934 374.005C584.156 365.126 594.599 359.465 605.981 358.259C629.111 355.689 659.488 357.308 686.499 374.219C738.927 407.089 797.009 433.329 782.591 492.85C768.174 552.371 664.371 577.428 664.371 577.428L650.493 554.812C650.493 554.812 742.191 523.972 725.512 475.374C710.4 431.761 577.3 504.672 567.431 405.65Z" fill="#192A56"/>
<path opacity="0.46" d="M567.431 405.65C566.295 394.26 569.711 382.884 576.934 374.005C584.156 365.126 594.599 359.465 605.981 358.259C629.111 355.689 659.488 357.308 686.499 374.219C738.927 407.089 797.009 433.329 782.591 492.85C768.174 552.371 664.371 577.428 664.371 577.428L650.493 554.812C650.493 554.812 742.191 523.972 725.512 475.374C710.4 431.761 577.3 504.672 567.431 405.65Z" fill="white"/>
<path d="M652.781 558.563C652.781 558.563 623.843 578.121 634.354 583.518C644.865 588.915 662.624 574.575 662.624 574.575L652.781 558.563Z" fill="#F4A28C"/>
<path d="M491.537 432.145C491.537 432.145 501.817 406.754 516.081 408.81C530.344 410.866 508.139 441.963 508.139 441.963L491.537 432.145Z" fill="#F4A28C"/>
<path d="M346.384 126.47H241.811V269.824H346.384V126.47Z" fill="#C9C9C9"/>
<path d="M714.1 129.811H633.223V204.623H714.1V129.811Z" fill="#C9C9C9"/>
<path opacity="0.44" d="M714.1 225.518H633.223V300.33H714.1V225.518Z" fill="#C9C9C9"/>
<path opacity="0.44" d="M821.474 225.518H740.596V300.33H821.474V225.518Z" fill="#C9C9C9"/>
<path opacity="0.63" d="M639.262 190.54L655.067 166.125L673.674 187.893L691.433 156.642L708.061 191.002V199.638H639.262V190.54Z" fill="white"/>
<path d="M673.033 161.756C677.49 161.756 681.103 158.143 681.103 153.686C681.103 149.229 677.49 145.616 673.033 145.616C668.576 145.616 664.963 149.229 664.963 153.686C664.963 158.143 668.576 161.756 673.033 161.756Z" fill="white"/>
<path d="M822.118 129.811H741.24V204.623H822.118V129.811Z" fill="#C9C9C9"/>
<path opacity="0.63" d="M747.277 190.54L763.083 166.125L781.664 187.893L799.448 156.642L816.076 191.002V199.638H747.277V190.54Z" fill="white"/>
<path d="M781.023 161.756C785.48 161.756 789.093 158.143 789.093 153.686C789.093 149.229 785.48 145.616 781.023 145.616C776.566 145.616 772.953 149.229 772.953 153.686C772.953 158.143 776.566 161.756 781.023 161.756Z" fill="white"/>
<path d="M295.471 320.864H139.498V410.377H295.471V320.864Z" fill="#FFD200"/>
<path d="M196.528 387.659C195.723 387.675 194.939 387.401 194.318 386.888L171.188 368.59C170.766 368.26 170.425 367.839 170.189 367.358C169.953 366.878 169.829 366.35 169.826 365.814C169.828 365.278 169.948 364.748 170.179 364.263C170.41 363.779 170.746 363.352 171.163 363.013L194.293 344.38C195.032 343.787 195.977 343.513 196.919 343.616C197.861 343.72 198.724 344.193 199.317 344.933C199.91 345.673 200.185 346.617 200.081 347.56C199.978 348.502 199.504 349.364 198.764 349.957L179.104 365.763L198.739 381.183C199.32 381.643 199.744 382.272 199.951 382.984C200.159 383.696 200.14 384.454 199.897 385.155C199.654 385.855 199.199 386.462 198.596 386.893C197.992 387.323 197.27 387.555 196.528 387.556V387.659Z" fill="#24285B"/>
<path d="M238.419 387.658C237.879 387.661 237.345 387.54 236.86 387.303C236.374 387.067 235.949 386.722 235.618 386.296C235.033 385.552 234.766 384.607 234.877 383.668C234.988 382.728 235.467 381.871 236.209 381.284L255.844 365.864L236.183 350.059C235.43 349.466 234.943 348.598 234.83 347.646C234.717 346.694 234.986 345.736 235.579 344.983C236.172 344.23 237.04 343.743 237.992 343.63C238.944 343.517 239.902 343.786 240.655 344.379L263.785 363.012C264.201 363.35 264.537 363.777 264.768 364.262C264.999 364.746 265.12 365.276 265.121 365.813C265.119 366.348 264.995 366.876 264.759 367.357C264.523 367.838 264.181 368.259 263.759 368.588L240.629 386.887C240.006 387.396 239.224 387.669 238.419 387.658Z" fill="#24285B"/>
<path d="M207.759 387.659C207.247 387.656 206.74 387.551 206.268 387.351C205.409 386.949 204.744 386.223 204.416 385.333C204.089 384.443 204.127 383.459 204.521 382.596L221.38 345.691C221.566 345.252 221.838 344.855 222.181 344.523C222.523 344.191 222.928 343.93 223.372 343.757C223.816 343.584 224.291 343.502 224.767 343.515C225.244 343.528 225.713 343.637 226.147 343.834C226.581 344.031 226.971 344.313 227.294 344.664C227.618 345.014 227.868 345.426 228.029 345.874C228.191 346.323 228.261 346.799 228.236 347.275C228.211 347.751 228.09 348.218 227.882 348.646L211.023 385.5C210.745 386.137 210.289 386.679 209.71 387.062C209.131 387.445 208.453 387.652 207.759 387.659Z" fill="#24285B"/>
<path d="M294.137 174.554C302.128 174.554 308.606 168.076 308.606 160.085C308.606 152.094 302.128 145.616 294.137 145.616C286.146 145.616 279.668 152.094 279.668 160.085C279.668 168.076 286.146 174.554 294.137 174.554Z" fill="white"/>
<path opacity="0.56" d="M324.95 192.775H265.146V204.623H324.95V192.775Z" fill="white"/>
<path opacity="0.19" d="M324.95 219.581H265.146V231.429H324.95V219.581Z" fill="white"/>
<path opacity="0.46" d="M531.039 126.47H381.594V215.006H531.039V126.47Z" fill="white"/>
<path d="M531.039 240.295H381.594V269.824H531.039V240.295Z" fill="white"/>
<path d="M531.04 240.295H487.658V269.824H531.04V240.295Z" fill="#C9C9C9"/>
<path d="M860.513 393.98H802.688V404.466H860.513V393.98Z" fill="#C9C9C9"/>
<path opacity="0.45" d="M860.513 413.461H802.688V423.947H860.513V413.461Z" fill="#C9C9C9"/>
</svg>
